<?xml version="1.0" standalone="no"?>
<!DOCTYPE svg PUBLIC "-//W3C//DTD SVG 20010904//EN"
 "http://www.w3.org/TR/2001/REC-SVG-20010904/DTD/svg10.dtd">
<svg version="1.0" xmlns="http://www.w3.org/2000/svg"
 width="360.000000pt" height="360.000000pt" viewBox="0 0 360.000000 360.000000"
 preserveAspectRatio="xMidYMid meet">

<g transform="translate(0.000000,360.000000) scale(0.100000,-0.100000)"
fill="#000000" stroke="none">
<path d="M1655 3449 c-194 -16 -414 -78 -589 -166 -475 -238 -801 -674 -897
-1201 -30 -163 -30 -401 0 -564 83 -457 346 -857 726 -1104 757 -491 1759
-291 2273 454 124 180 222 421 263 650 30 163 30 401 0 564 -96 527 -422 963
-897 1201 -182 91 -385 147 -605 167 -125 11 -142 11 -274 -1z m28 -149 c26
-17 86 -59 134 -95 l86 -65 33 29 c40 36 66 45 107 37 33 -6 352 -235 395
-282 26 -30 30 -99 7 -130 -8 -10 -15 -24 -15 -30 0 -7 55 -53 123 -102 148
-109 171 -147 132 -222 l-15 -28 126 -93 c135 -99 161 -132 149 -191 -4 -16
-51 -89 -105 -162 l-99 -132 -26 -210 c-13 -115 -29 -243 -35 -284 -5 -41 -10
-80 -10 -87 0 -6 -54 -71 -120 -143 -140 -155 -128 -95 -105 -481 10 -160 12
-266 6 -280 -5 -13 -21 -35 -36 -49 -37 -35 -112 -35 -149 -1 -36 34 -43 67
-50 226 -4 77 -11 224 -17 326 -9 154 -9 190 2 212 8 14 66 83 130 154 l116
128 7 62 7 61 -40 -5 c-29 -4 -49 0 -74 14 -28 17 -902 658 -978 718 -36 28
-49 57 -49 104 0 75 80 130 150 103 14 -5 78 -49 143 -97 65 -48 119 -86 121
-84 1 2 19 26 40 54 l38 50 -23 15 c-59 40 -625 337 -631 331 -3 -3 -62 -137
-131 -298 l-124 -292 57 -83 c308 -446 544 -798 550 -820 6 -18 -7 -141 -35
-355 -63 -469 -64 -475 -81 -501 -21 -32 -79 -55 -120 -47 -35 6 -80 51 -90
89 -4 17 67 586 90 727 5 26 2 31 -319 499 -235 342 -294 433 -300 461 -5 22
19 88 115 316 67 158 145 342 172 408 78 185 125 217 239 160 27 -14 53 -23
58 -21 4 3 63 81 131 173 68 92 135 181 149 197 50 54 97 59 164 16z"/>
<path d="M1544 2927 c-49 -67 -89 -125 -89 -130 0 -4 31 -25 69 -47 l70 -38
88 116 88 117 -28 22 c-15 13 -45 36 -68 53 l-41 29 -89 -122z"/>
<path d="M1930 2772 c-63 -86 -116 -161 -118 -167 -2 -9 120 -79 140 -80 6 0
125 157 206 272 l22 32 -57 44 c-32 24 -62 46 -68 49 -5 3 -62 -64 -125 -150z"/>
<path d="M2106 2331 c-97 -131 -176 -243 -176 -249 0 -8 79 -73 116 -95 8 -4
80 85 193 238 l180 245 -57 42 c-31 22 -62 45 -68 50 -8 5 -70 -71 -188 -231z"/>
<path d="M2392 2039 c-73 -99 -135 -186 -138 -193 -4 -11 123 -113 130 -105
26 33 276 378 276 382 0 6 -106 86 -122 92 -8 3 -68 -69 -146 -176z"/>
</g>
</svg>
