<?xml version="1.0" standalone="no"?>
<!DOCTYPE svg PUBLIC "-//W3C//DTD SVG 20010904//EN"
 "http://www.w3.org/TR/2001/REC-SVG-20010904/DTD/svg10.dtd">
<svg version="1.0" xmlns="http://www.w3.org/2000/svg"
 width="778.000000pt" height="777.000000pt" viewBox="0 0 778.000000 777.000000"
 preserveAspectRatio="xMidYMid meet">

<g transform="translate(0.000000,777.000000) scale(0.100000,-0.100000)"
fill="#000000" stroke="none">
<path d="M0 3885 l0 -3885 3890 0 3890 0 0 3885 0 3885 -3890 0 -3890 0 0
-3885z m4186 3835 c391 -32 758 -116 1114 -257 882 -349 1598 -1002 2024
-1847 195 -386 321 -798 383 -1256 26 -191 26 -755 0 -945 -118 -864 -476
-1605 -1071 -2214 -612 -625 -1381 -1007 -2271 -1128 -190 -26 -754 -26 -945
0 -853 116 -1587 467 -2198 1052 -602 576 -1013 1376 -1131 2200 -61 421 -52
878 25 1280 297 1551 1507 2761 3059 3059 115 22 325 49 455 59 107 8 438 6
556 -3z"/>
<path d="M3415 7201 c-65 -17 -118 -56 -170 -126 -12 -16 -132 -178 -265 -360
-302 -411 -313 -425 -320 -425 -3 0 -55 25 -117 57 -101 52 -118 57 -175 56
-106 0 -183 -48 -230 -145 -15 -29 -84 -188 -153 -353 -70 -165 -146 -345
-170 -400 -24 -55 -75 -176 -115 -270 -39 -93 -77 -183 -84 -200 -8 -16 -44
-102 -81 -190 -37 -88 -81 -191 -97 -229 -60 -138 -51 -224 36 -349 23 -34 78
-114 121 -177 43 -63 102 -149 130 -190 28 -41 87 -127 130 -190 119 -174 203
-297 260 -380 132 -192 309 -452 526 -769 l111 -164 -5 -51 c-3 -28 -15 -121
-27 -206 -34 -248 -56 -414 -99 -745 -23 -170 -48 -357 -56 -414 -24 -162 -22
-237 8 -296 47 -93 118 -135 224 -135 86 0 136 22 189 83 50 57 60 88 84 279
11 84 22 164 25 178 3 14 11 81 20 150 13 111 90 693 131 985 8 61 18 151 21
200 7 120 19 98 -282 535 -28 41 -87 127 -130 190 -43 63 -102 149 -130 190
-28 41 -87 127 -130 190 -43 63 -102 149 -130 190 -28 41 -91 134 -140 205
-49 72 -113 166 -143 210 -31 44 -98 142 -150 218 l-95 139 21 46 c21 46 44
102 177 417 37 88 108 255 157 370 49 116 112 264 140 330 28 66 54 124 58
129 5 4 21 2 37 -6 29 -15 461 -245 573 -306 36 -19 196 -104 355 -189 395
-211 438 -234 452 -245 9 -7 -11 -41 -74 -126 -47 -65 -87 -119 -89 -120 -1
-2 -29 15 -61 39 -85 63 -224 165 -343 254 -160 119 -227 142 -322 110 -113
-37 -178 -126 -178 -244 0 -84 26 -138 94 -196 28 -24 209 -159 401 -301 193
-141 422 -310 510 -375 88 -65 311 -230 495 -365 184 -136 404 -298 488 -361
234 -174 276 -201 326 -208 47 -7 115 -3 154 10 20 7 22 5 18 -16 -3 -13 -10
-75 -17 -137 l-12 -114 -46 -53 c-25 -29 -136 -150 -246 -269 -225 -244 -250
-277 -259 -340 -6 -40 11 -448 34 -816 5 -85 14 -263 20 -395 13 -274 23 -326
77 -386 55 -61 101 -80 189 -81 91 0 152 28 201 91 62 80 62 92 28 691 -9 146
-21 375 -28 510 l-12 245 160 175 c88 96 197 214 243 264 46 49 93 108 104
130 21 41 36 135 78 486 10 91 28 242 40 335 11 94 28 238 38 322 10 83 23
158 29 165 5 7 41 56 80 108 38 52 126 172 195 266 70 94 134 188 143 210 23
53 22 140 -3 195 -31 71 -13 56 -414 352 -87 64 -158 122 -158 128 0 6 9 23
20 39 52 73 46 205 -13 282 -18 24 -128 112 -257 207 -124 91 -241 178 -259
192 l-34 27 39 63 c37 59 39 67 39 143 0 121 -16 143 -200 281 -295 220 -620
457 -650 473 -19 11 -54 17 -100 17 -58 0 -79 -5 -120 -28 -28 -15 -66 -48
-85 -72 -19 -24 -40 -44 -47 -45 -6 0 -92 60 -190 133 -267 198 -315 233 -350
251 -38 19 -126 28 -168 17z m265 -713 c77 -57 138 -108 136 -114 -3 -6 -51
-74 -107 -150 -56 -77 -138 -187 -182 -246 -43 -60 -81 -108 -84 -108 -7 0
-286 148 -306 162 -19 14 -26 3 319 471 36 48 69 87 75 87 5 0 72 -46 149
-102z m906 -266 c73 -53 131 -102 129 -109 -2 -6 -62 -89 -132 -185 -71 -95
-180 -242 -242 -325 -62 -84 -114 -153 -115 -153 -1 0 -45 23 -97 50 -51 28
-122 65 -156 82 -35 18 -63 38 -63 44 0 10 69 107 314 439 179 242 199 266
213 261 8 -4 75 -50 149 -104z m501 -772 c76 -56 139 -105 141 -110 3 -9 -58
-96 -273 -385 -61 -82 -194 -262 -295 -400 -101 -137 -191 -258 -200 -268 -15
-16 -24 -11 -162 91 l-146 108 48 64 c26 36 150 205 275 375 126 171 266 362
313 425 47 63 99 134 116 157 17 23 34 43 38 43 4 0 69 -45 145 -100z m542
-756 l143 -105 -18 -27 c-10 -15 -54 -76 -99 -137 -45 -60 -171 -231 -280
-380 -109 -148 -204 -276 -211 -284 -10 -11 -38 6 -158 94 -86 64 -143 112
-139 119 3 6 29 43 58 81 152 205 504 684 524 713 12 17 26 32 30 32 4 0 72
-47 150 -106z"/>
</g>
</svg>
